<svg xmlns="http://www.w3.org/2000/svg" viewBox="0 0 236.99 325.09"><defs><style>.cls-1{fill:#f7931e;}.cls-2{fill:#fbb03b;}</style></defs><g id="Layer_2" data-name="Layer 2"><g id="Layer_1-2" data-name="Layer 1"><path class="cls-1" d="M231.7,54.11q-1.63-5-3.64-9.68a89.08,89.08,0,0,0-10.82-18.68A67.31,67.31,0,0,0,195.19,6.83,59.83,59.83,0,0,0,166.71,0H0V325.09H166.71a61.07,61.07,0,0,0,28.71-6.84,67.13,67.13,0,0,0,22.27-18.71,88.39,88.39,0,0,0,14.24-28A114.86,114.86,0,0,0,237,237V89.31A113.62,113.62,0,0,0,231.7,54.11ZM169.47,237a69.94,69.94,0,0,1-2.29,17.9,54.75,54.75,0,0,1-6.67,15.49,36.52,36.52,0,0,1-8.23,9.21c-.76.58-1.53,1.14-2.33,1.66a24.4,24.4,0,0,1-13.55,4H71.19V40.63H136.4a24.41,24.41,0,0,1,13.55,4,34.32,34.32,0,0,1,5.65,4.58,38.86,38.86,0,0,1,4.91,6.07,52,52,0,0,1,6.67,15.5,73.83,73.83,0,0,1,2.29,18.5Z"/><path class="cls-2" d="M237,89.31V201.55a107.23,107.23,0,0,1-38.46,7,108.41,108.41,0,0,1-29.06-3.93V89.31a73.83,73.83,0,0,0-2.29-18.5,52,52,0,0,0-6.67-15.5,38.86,38.86,0,0,0-4.91-6.07,106.77,106.77,0,0,1,42.93-8.86,108.51,108.51,0,0,1,29.53,4q2,4.65,3.64,9.68A113.62,113.62,0,0,1,237,89.31Z"/><path class="cls-2" d="M152.53,285.67a75.58,75.58,0,0,1-11.18,39.42H0V217.7a104.76,104.76,0,0,1,56.53-16.13,108.83,108.83,0,0,1,14.66,1v82.71H136.4a24.4,24.4,0,0,0,13.55-4c.8-.52,1.57-1.08,2.33-1.66Q152.53,282.59,152.53,285.67Z"/><path class="cls-2" d="M109.53,40.38v.25H71.19v68.72A108.73,108.73,0,0,1,9.53,128q-4.81,0-9.53-.4V0H98.29A78.53,78.53,0,0,1,109.53,40.38Z"/></g></g></svg>